<?xml version="1.0" encoding="UTF-8" standalone="no"?>
<svg
   id="Bold"
   viewBox="0 0 24 22"
   width="512"
   height="469.33334"
   version="1.1"
   sodipodi:docname="envelope.svg"
   inkscape:version="1.4.2 (f4327f4, 2025-05-13)"
   xmlns:inkscape="http://www.inkscape.org/namespaces/inkscape"
   xmlns:sodipodi="http://sodipodi.sourceforge.net/DTD/sodipodi-0.dtd"
   xmlns="http://www.w3.org/2000/svg"
   xmlns:svg="http://www.w3.org/2000/svg">
  <defs
     id="defs1" />
  <sodipodi:namedview
     id="namedview1"
     pagecolor="#ffffff"
     bordercolor="#000000"
     borderopacity="0.25"
     inkscape:showpageshadow="2"
     inkscape:pageopacity="0.0"
     inkscape:pagecheckerboard="0"
     inkscape:deskcolor="#d1d1d1"
     inkscape:zoom="1.4355469"
     inkscape:cx="256"
     inkscape:cy="234.40544"
     inkscape:window-width="1920"
     inkscape:window-height="974"
     inkscape:window-x="-11"
     inkscape:window-y="-11"
     inkscape:window-maximized="1"
     inkscape:current-layer="Bold" />
  <path
     d="M 18.5,0 H 5.5 A 5.506,5.506 0 0 0 0,5.5 v 11 A 5.506,5.506 0 0 0 5.5,22 h 13 A 5.506,5.506 0 0 0 24,16.5 V 5.5 A 5.506,5.506 0 0 0 18.5,0 Z m 0,3 a 2.476,2.476 0 0 1 1.643,0.631 l -6.5,6.5 a 2.373,2.373 0 0 1 -3.278,0 l -6.5,-6.5 A 2.476,2.476 0 0 1 5.5,3 Z m 0,16 H 5.5 A 2.5,2.5 0 0 1 3,16.5 V 7.017 l 5.239,5.239 a 5.317,5.317 0 0 0 7.521,0 L 21,7.017 V 16.5 A 2.5,2.5 0 0 1 18.5,19 Z"
     id="path1"
     style="fill:#ececec;fill-opacity:1" />
</svg>
