<?xml version="1.0" encoding="UTF-8" standalone="no"?>
<svg
   id="Filled"
   viewBox="0 0 24 22"
   width="512"
   height="469.33334"
   version="1.1"
   sodipodi:docname="mail.svg"
   inkscape:version="1.4.2 (f4327f4, 2025-05-13)"
   xmlns:inkscape="http://www.inkscape.org/namespaces/inkscape"
   xmlns:sodipodi="http://sodipodi.sourceforge.net/DTD/sodipodi-0.dtd"
   xmlns="http://www.w3.org/2000/svg"
   xmlns:svg="http://www.w3.org/2000/svg">
  <defs
     id="defs2" />
  <sodipodi:namedview
     id="namedview2"
     pagecolor="#ffffff"
     bordercolor="#000000"
     borderopacity="0.25"
     inkscape:showpageshadow="2"
     inkscape:pageopacity="0.0"
     inkscape:pagecheckerboard="0"
     inkscape:deskcolor="#d1d1d1"
     inkscape:zoom="1.4355469"
     inkscape:cx="256.69659"
     inkscape:cy="200.9687"
     inkscape:window-width="1920"
     inkscape:window-height="974"
     inkscape:window-x="-11"
     inkscape:window-y="-11"
     inkscape:window-maximized="1"
     inkscape:current-layer="Filled" />
  <path
     d="m 23.954,4.542 -8.418,8.418 a 5.007,5.007 0 0 1 -7.072,0 L 0.046,4.542 C 0.032,4.7 0,4.843 0,5 v 12 a 5.006,5.006 0 0 0 5,5 h 14 a 5.006,5.006 0 0 0 5,-5 V 5 C 24,4.843 23.968,4.7 23.954,4.542 Z"
     id="path1"
     style="fill:#ececec;fill-opacity:1" />
  <path
     d="M 14.122,11.546 23.256,2.411 A 4.986,4.986 0 0 0 19,0 H 5 A 4.986,4.986 0 0 0 0.744,2.411 l 9.134,9.135 a 3.007,3.007 0 0 0 4.244,0 z"
     id="path2"
     style="fill:#ececec;fill-opacity:1" />
</svg>
